<svg xmlns="http://www.w3.org/2000/svg" version="1.1" xmlns:xlink="http://www.w3.org/1999/xlink" xmlns:svgjs="http://svgjs.com/svgjs" width="425" height="820" preserveAspectRatio="none" viewBox="0 0 425 820"><g mask="url(&quot;#SvgjsMask5192&quot;)" fill="none"><rect width="425" height="820" x="0" y="0" fill="url(#SvgjsLinearGradient5193)"></rect><path d="M274 799L273 1233" stroke-width="6" stroke="url(#SvgjsLinearGradient5194)" stroke-linecap="round" class="Up"></path><path d="M160 532L159 114" stroke-width="8" stroke="url(#SvgjsLinearGradient5194)" stroke-linecap="round" class="Up"></path><path d="M231 252L230 535" stroke-width="8" stroke="url(#SvgjsLinearGradient5194)" stroke-linecap="round" class="Up"></path><path d="M25 608L24 985" stroke-width="10" stroke="url(#SvgjsLinearGradient5195)" stroke-linecap="round" class="Down"></path><path d="M137 506L136 1039" stroke-width="8" stroke="url(#SvgjsLinearGradient5194)" stroke-linecap="round" class="Up"></path><path d="M223 586L222 1180" stroke-width="10" stroke="url(#SvgjsLinearGradient5195)" stroke-linecap="round" class="Down"></path><path d="M76 699L75 385" stroke-width="6" stroke="url(#SvgjsLinearGradient5194)" stroke-linecap="round" class="Up"></path><path d="M351 301L350 760" stroke-width="6" stroke="url(#SvgjsLinearGradient5194)" stroke-linecap="round" class="Up"></path><path d="M352 183L351 -270" stroke-width="10" stroke="url(#SvgjsLinearGradient5195)" stroke-linecap="round" class="Down"></path><path d="M260 516L259 152" stroke-width="6" stroke="url(#SvgjsLinearGradient5194)" stroke-linecap="round" class="Up"></path><path d="M29 442L28 0" stroke-width="6" stroke="url(#SvgjsLinearGradient5195)" stroke-linecap="round" class="Down"></path></g><defs><mask id="SvgjsMask5192"><rect width="425" height="820" fill="#ffffff"></rect></mask><linearGradient x1="100%" y1="50%" x2="0%" y2="50%" gradientUnits="userSpaceOnUse" id="SvgjsLinearGradient5193"><stop stop-color="rgba(0, 147, 67, 1)" offset="0.03"></stop><stop stop-color="rgba(163, 163, 163, 1)" offset="0.85"></stop></linearGradient><linearGradient x1="0%" y1="100%" x2="0%" y2="0%" id="SvgjsLinearGradient5194"><stop stop-color="rgba(192, 192, 192, 0)" offset="0"></stop><stop stop-color="rgba(192, 192, 192, 1)" offset="1"></stop></linearGradient><linearGradient x1="0%" y1="0%" x2="0%" y2="100%" id="SvgjsLinearGradient5195"><stop stop-color="rgba(192, 192, 192, 0)" offset="0"></stop><stop stop-color="rgba(192, 192, 192, 1)" offset="1"></stop></linearGradient></defs></svg>